<svg width="208" height="78" viewBox="0 0 208 78" fill="none" xmlns="http://www.w3.org/2000/svg">
<path d="M33.3223 0H185.712V8.57344C185.712 19.6191 176.758 28.5734 165.712 28.5734H33.3223V0Z" fill="#FF8000"/>
<g filter="url(#filter0_d_498_1071)">
<path d="M33.3223 28.5737H179.999C191.044 28.5737 199.999 37.528 199.999 48.5737V61.9094H33.3223V28.5737Z" fill="white"/>
</g>
<path d="M32.4062 0.5C50.0264 0.5 64.3133 14.8217 64.3135 32.4912C64.3135 50.1609 50.0265 64.4834 32.4062 64.4834C14.7861 64.4832 0.5 50.1608 0.5 32.4912C0.500179 14.8218 14.7862 0.500163 32.4062 0.5Z" fill="#FF8000" stroke="white"/>
<path d="M45.104 32.0613C45.4367 32.2539 45.4367 32.7342 45.104 32.9268L26.4468 43.7268C26.1134 43.9198 25.6963 43.6792 25.6963 43.2941L25.6963 21.6941C25.6963 21.3089 26.1134 21.0684 26.4468 21.2613L45.104 32.0613Z" fill="white"/>
<path d="M73.3656 21.3988C69.7687 21.3988 67.1875 18.6475 67.1875 15.2469V15.2128C67.1875 11.8122 69.802 9.02674 73.3989 9.02674C76.9959 9.02674 79.5771 11.778 79.5771 15.1786V15.2128C79.5771 18.6134 76.9626 21.3988 73.3656 21.3988ZM73.3989 18.9722C75.4639 18.9722 76.896 17.2975 76.896 15.2469V15.2128C76.896 13.1621 75.4306 11.4533 73.3656 11.4533C71.3007 11.4533 69.8686 13.128 69.8686 15.1786V15.2128C69.8686 17.2634 71.334 18.9722 73.3989 18.9722Z" fill="white"/>
<path d="M81.7521 21.1937V12.0343H84.2833V13.333C84.8661 12.564 85.6321 11.8634 86.8977 11.8634C88.8294 11.8634 89.9285 13.1451 89.9285 15.264V21.1937H87.3973V16.0843C87.3973 14.8539 86.8478 14.2216 85.8653 14.2216C84.8828 14.2216 84.2833 14.8539 84.2833 16.0843V21.1937H81.7521Z" fill="white"/>
<path d="M91.9942 17.1437V14.6488H97.1233V17.1437H91.9942Z" fill="white"/>
<path d="M99.5246 21.1937V9.2318H104.071C107.734 9.2318 110.266 11.8122 110.266 15.1786V15.2128C110.266 18.5792 107.734 21.1937 104.071 21.1937H99.5246ZM104.071 11.6071H102.089V18.8184H104.071C106.152 18.8184 107.585 17.3659 107.585 15.2469V15.2128C107.585 13.0938 106.152 11.6071 104.071 11.6071Z" fill="white"/>
<path d="M116.681 21.3988C114 21.3988 112.018 19.4678 112.018 16.6653V16.6311C112.018 14.0166 113.833 11.8634 116.431 11.8634C119.412 11.8634 120.777 14.2387 120.777 16.8362C120.777 17.0412 120.761 17.2634 120.744 17.5197H114.532C114.782 18.6988 115.582 19.314 116.714 19.314C117.563 19.314 118.163 19.0406 118.879 18.3741L120.328 19.6899C119.478 20.7665 118.296 21.3988 116.681 21.3988ZM114.499 15.8963H118.313C118.163 14.7343 117.497 13.9482 116.431 13.9482C115.365 13.9482 114.699 14.7172 114.499 15.8963Z" fill="white"/>
<path d="M122.83 21.1937V12.0343H125.361V13.333C125.944 12.564 126.71 11.8634 127.992 11.8634C129.175 11.8634 130.041 12.3761 130.507 13.3159C131.29 12.359 132.222 11.8634 133.438 11.8634C135.32 11.8634 136.452 13.0254 136.452 15.2298V21.1937H133.921V16.0843C133.921 14.8539 133.388 14.2216 132.439 14.2216C131.49 14.2216 130.907 14.8539 130.907 16.0843V21.1937H128.375V16.0843C128.375 14.8539 127.843 14.2216 126.893 14.2216C125.944 14.2216 125.361 14.8539 125.361 16.0843V21.1937H122.83Z" fill="white"/>
<path d="M141.351 21.3646C139.669 21.3646 138.287 20.3906 138.287 18.5621V18.5279C138.287 16.5457 139.769 15.6058 141.884 15.6058C142.8 15.6058 143.416 15.7596 144.066 15.9817V15.8279C144.066 14.7343 143.416 14.1533 142.15 14.1533C141.168 14.1533 140.502 14.3242 139.686 14.6488L139.053 12.6666C140.036 12.2394 141.001 11.9318 142.517 11.9318C143.916 11.9318 144.882 12.2906 145.531 12.9571C146.197 13.6406 146.497 14.6488 146.497 15.8792V21.1937H144.049V20.2026C143.433 20.9032 142.6 21.3646 141.351 21.3646ZM142.117 19.5703C143.316 19.5703 144.099 18.9209 144.099 17.964V17.5026C143.649 17.2975 143.1 17.1608 142.484 17.1608C141.401 17.1608 140.735 17.6051 140.735 18.4254V18.4596C140.735 19.1602 141.301 19.5703 142.117 19.5703Z" fill="white"/>
<path d="M148.841 21.1937V12.0343H151.373V13.333C151.956 12.564 152.722 11.8634 153.987 11.8634C155.919 11.8634 157.018 13.1451 157.018 15.264V21.1937H154.487V16.0843C154.487 14.8539 153.937 14.2216 152.955 14.2216C151.972 14.2216 151.373 14.8539 151.373 16.0843V21.1937H148.841Z" fill="white"/>
<path d="M163.047 21.3646C160.965 21.3646 158.984 19.6899 158.984 16.6311V16.5969C158.984 13.5381 160.932 11.8634 163.047 11.8634C164.396 11.8634 165.228 12.4957 165.828 13.2305V8.71915H168.359V21.1937H165.828V19.8779C165.212 20.7494 164.379 21.3646 163.047 21.3646ZM163.696 19.1602C164.879 19.1602 165.861 18.152 165.861 16.6311V16.5969C165.861 15.076 164.879 14.0678 163.696 14.0678C162.514 14.0678 161.515 15.059 161.515 16.5969V16.6311C161.515 18.152 162.514 19.1602 163.696 19.1602Z" fill="white"/>
<path d="M74.0006 53.0961L68.7539 37.3582H72.3761L75.5593 47.9394L79.0058 37.3136H81.9036L85.3502 47.9394L88.5333 37.3582H92.0677L86.821 53.0961H83.8793L80.4108 42.8721L76.9423 53.0961H74.0006Z" fill="#303030"/>
<path d="M94.7914 52.9845V37.3582H106.382V40.4165H98.1502V43.5864H105.395V46.6447H98.1502V49.9262H106.492V52.9845H94.7914Z" fill="#303030"/>
<path d="M109.718 52.9845V37.3582H116.852C118.63 37.3582 119.969 37.827 120.87 38.7422C121.572 39.4566 121.923 40.3495 121.923 41.3987V41.4434C121.923 43.1846 121.001 44.2338 119.904 44.8142C121.682 45.5062 122.779 46.5777 122.779 48.6538V48.6984C122.779 51.5558 120.496 52.9845 117.028 52.9845H109.718ZM118.564 42.0238V41.9791C118.564 40.9299 117.774 40.3718 116.347 40.3718H113.01V43.6757H116.128C117.621 43.6757 118.564 43.1846 118.564 42.0238ZM119.421 48.2743V48.2296C119.421 47.1804 118.674 46.5331 116.918 46.5331H113.01V49.9709H117.028C118.521 49.9709 119.421 49.4351 119.421 48.2743Z" fill="#303030"/>
<path d="M125.934 52.9845V37.3582H129.314V52.9845H125.934Z" fill="#303030"/>
<path d="M133.374 52.9845V37.3582H136.491L143.692 46.9795V37.3582H147.029V52.9845H144.153L136.711 43.0506V52.9845H133.374Z" fill="#303030"/>
<path d="M149.62 52.9845L156.206 37.2466H159.323L165.909 52.9845H162.375L160.97 49.4797H154.472L153.067 52.9845H149.62ZM155.679 46.4438H159.762L157.721 41.3764L155.679 46.4438Z" fill="#303030"/>
<path d="M168.5 52.9845V37.3582H175.525C177.479 37.3582 178.972 37.894 180.003 38.9432C180.882 39.8361 181.321 41.0192 181.321 42.5149V42.5595C181.321 45.0821 179.982 46.667 178.028 47.4037L181.782 52.9845H177.83L174.537 47.9841H171.881V52.9845H168.5ZM171.881 44.9481H175.306C176.974 44.9481 177.896 44.0775 177.896 42.7381V42.6935C177.896 41.1978 176.908 40.4611 175.24 40.4611H171.881V44.9481Z" fill="#303030"/>
<defs>
<filter id="filter0_d_498_1071" x="25.3223" y="28.5737" width="182.676" height="49.3357" filterUnits="userSpaceOnUse" color-interpolation-filters="sRGB">
<feFlood flood-opacity="0" result="BackgroundImageFix"/>
<feColorMatrix in="SourceAlpha" type="matrix" values="0 0 0 0 0 0 0 0 0 0 0 0 0 0 0 0 0 0 127 0" result="hardAlpha"/>
<feOffset dy="8"/>
<feGaussianBlur stdDeviation="4"/>
<feComposite in2="hardAlpha" operator="out"/>
<feColorMatrix type="matrix" values="0 0 0 0 1 0 0 0 0 0.501961 0 0 0 0 0 0 0 0 0.2 0"/>
<feBlend mode="normal" in2="BackgroundImageFix" result="effect1_dropShadow_498_1071"/>
<feBlend mode="normal" in="SourceGraphic" in2="effect1_dropShadow_498_1071" result="shape"/>
</filter>
</defs>
</svg>
